# File created by Blade
# Date/Time:  Wed Jan 21 15:23:53 2015
#---------------------------------------------------------
:version 1.10
:name HOM
:units
  mass 1.0
  length 1.000000
  angle deg
:documentation
     Acclaim Skeleton File
:root
   axis xyz
   order TX TY TZ RX RY RZ
   position 0.000000 0.000000 0.000000
   orientation 0 0 0
:bonedata
   begin
      id 1
      name Spine_dum
      direction 0.000000 1.000000 0.000000
      length 7.067664
      axis 0.0 0.0 0.0 xyz
   end
   begin
      id 2
      name LeftUpLeg_dum
      direction 1.000000 0.000000 0.000000
      length 4.013002
      axis 0.0 0.0 0.0 xyz
   end
   begin
      id 3
      name RightUpLeg_dum
      direction -1.000000 0.000000 0.000000
      length 4.013002
      axis 0.0 0.0 0.0 xyz
   end
   begin
      id 4
      name Spine
      direction 0.000000 1.000000 0.000000
      length 0.000000
      axis 0.0 0.0 0.0 xyz
      dof rx ry rz
   end
   begin
      id 5
      name Spine_dum1
      direction 0.000000 1.000000 0.000000
      length 15.039886
      axis 0.0 0.0 0.0 xyz
   end
   begin
      id 6
      name Spine_dum2
      direction 0.000000 1.000000 0.000000
      length 10.530368
      axis 0.0 0.0 0.0 xyz
   end
   begin
      id 7
      name Spine_dum3
      direction 0.000000 1.000000 0.000000
      length 10.530368
      axis 0.0 0.0 0.0 xyz
   end
   begin
      id 8
      name Head
      direction 0.000000 1.000000 0.000000
      length 4.527550
      axis 0.0 0.0 0.0 xyz
      dof rx ry rz
   end
   begin
      id 9
      name LeftShoulder
      direction 1.000000 0.000000 0.000000
      length 7.028855
      axis 0.0 0.0 -90.0 xyz
      dof rx ry rz
   end
   begin
      id 10
      name LeftArm
      direction 1.000000 0.000000 0.000000
      length 10.797705
      axis 0.0 0.0 -90.0 xyz
      dof rx ry rz
   end
   begin
      id 11
      name LeftForeArm
      direction 1.000000 0.000000 0.000000
      length 7.907442
      axis 0.0 0.0 -90.0 xyz
      dof ry rz rx
   end
   begin
      id 12
      name LeftHand
      direction 0.000000 0.000000 0.000000
      length 0.000000
      axis 0.0 0.0 -90.0 xyz
      dof rx ry rz
   end
   begin
      id 13
      name LeftHand_dum1
      direction 0.000000 0.000000 0.000000
      length 0.000000
      axis 0.0 0.0 -90.0 xyz
   end
   begin
      id 14
      name LeftHand_dum2
      direction 1.000000 0.000000 0.000000
      length 3.937000
      axis 0.0 0.0 -90.0 xyz
   end
   begin
      id 15
      name LeftHandThumb1
      direction 0.000000 0.000000 1.000000
      length 3.937000
      axis 0.0 0.0 -90.0 xyz
      dof rx rz ry
   end
   begin
      id 16
      name RightShoulder
      direction -1.000000 0.000000 0.000000
      length 7.028855
      axis 0.0 0.0 90.0 xyz
      dof rx ry rz
   end
   begin
      id 17
      name RightArm
      direction -1.000000 0.000000 0.000000
      length 10.797705
      axis 0.0 0.0 90.0 xyz
      dof rx ry rz
   end
   begin
      id 18
      name RightForeArm
      direction -1.000000 0.000000 0.000000
      length 7.907442
      axis 0.0 0.0 90.0 xyz
      dof ry rz rx
   end
   begin
      id 19
      name RightHand
      direction 0.000000 0.000000 0.000000
      length 0.000000
      axis 0.0 0.0 90.0 xyz
      dof rx ry rz
   end
   begin
      id 20
      name RightHand_dum1
      direction 0.000000 0.000000 0.000000
      length 0.000000
      axis 0.0 0.0 90.0 xyz
   end
   begin
      id 21
      name RightHand_dum2
      direction -1.000000 0.000000 0.000000
      length 3.937000
      axis 0.0 0.0 90.0 xyz
   end
   begin
      id 22
      name RightHandThumb1
      direction 0.000000 0.000000 1.000000
      length 3.937000
      axis 0.0 0.0 90.0 xyz
      dof rx rz ry
   end
   begin
      id 23
      name LeftUpLeg
      direction 0.000000 -1.000000 0.000000
      length 16.899758
      axis 0.0 0.0 0.0 xyz
      dof rx ry rz
   end
   begin
      id 24
      name LeftLeg
      direction 0.000000 -1.000000 0.000000
      length 17.389183
      axis 0.0 0.0 0.0 xyz
      dof rx ry rz
   end
   begin
      id 25
      name LeftFoot
      direction 0.000000 -0.258819 0.965926
      length 4.924528
      axis 15.0 0.0 0.0 xyz
      dof rx ry rz
   end
   begin
      id 26
      name LeftToeBase
      direction 0.000000 0.000000 1.000000
      length 2.952750
      axis 0.0 0.0 0.0 xyz
      dof rx ry rz
   end
   begin
      id 27
      name RightUpLeg
      direction 0.000000 -1.000000 0.000000
      length 16.899758
      axis 0.0 0.0 0.0 xyz
      dof rx ry rz
   end
   begin
      id 28
      name RightLeg
      direction 0.000000 -1.000000 0.000000
      length 17.389183
      axis 0.0 0.0 0.0 xyz
      dof rx ry rz
   end
   begin
      id 29
      name RightFoot
      direction 0.000000 -0.258819 0.965926
      length 4.924528
      axis 15.0 0.0 0.0 xyz
      dof rx ry rz
   end
   begin
      id 30
      name RightToeBase
      direction 0.000000 0.000000 1.000000
      length 2.952750
      axis 0.0 0.0 0.0 xyz
      dof rx ry rz
   end
:hierarchy
   begin
      root Spine_dum LeftUpLeg_dum RightUpLeg_dum
      Spine_dum Spine
      LeftUpLeg_dum LeftUpLeg
      RightUpLeg_dum RightUpLeg
      Spine Spine_dum1 Spine_dum2 Spine_dum3
      Spine_dum1 Head
      Spine_dum2 LeftShoulder
      Spine_dum3 RightShoulder
      LeftShoulder LeftArm
      LeftArm LeftForeArm
      LeftForeArm LeftHand
      LeftHand LeftHand_dum1 LeftHand_dum2
      LeftHand_dum1 LeftHandThumb1
      RightShoulder RightArm
      RightArm RightForeArm
      RightForeArm RightHand
      RightHand RightHand_dum1 RightHand_dum2
      RightHand_dum1 RightHandThumb1
      LeftUpLeg LeftLeg
      LeftLeg LeftFoot
      LeftFoot LeftToeBase
      RightUpLeg RightLeg
      RightLeg RightFoot
      RightFoot RightToeBase
   end

# File created by Blade
# Date/Time:  Wed Jan 21 15:23:43 2015
# Frame Rate: 120.000 fps
#------------------------------------------------------
:FULLY-SPECIFIED
:DEGREES
111
root 19.746579 35.476386 -21.586170 -183.978754 7.351370 -180.856906
Spine 1.622401 1.949578 -4.198105
Head 13.784125 -4.437716 8.113185
LeftShoulder -10.809858 -24.262823 0.843979
LeftArm -15.110498 -4.742567 -60.315883
LeftForeArm 3.240803 -0.000000 -0.316193
LeftHand -4.789670 -0.000000 -4.897283
LeftHandThumb1 -26.253704 0.000000 33.147579
RightShoulder -12.451215 -10.020337 12.220928
RightArm 14.283172 14.316479 65.638838
RightForeArm -26.888815 -0.000000 14.129520
RightHand -2.141400 -0.000000 8.042997
RightHandThumb1 -24.326973 -0.000000 -32.862282
LeftUpLeg 10.373507 12.597102 -0.305255
LeftLeg -3.540426 -0.000000 0.000000
LeftFoot -21.693104 29.905828 -12.061522
LeftToeBase 25.911951 -0.000000 -0.000000
RightUpLeg -10.100143 -9.634687 -7.994776
RightLeg 32.362874 -0.000000 -0.000000
RightFoot -20.111922 -2.615151 24.139214
RightToeBase 21.710801 -0.000000 -0.000000
112
root 19.740129 35.467026 -21.576341 -184.136553 7.434876 -180.962890
Spine 1.940864 1.966667 -4.329551
Head 13.635999 -4.571649 8.215007
LeftShoulder -10.701204 -24.283718 0.761302
LeftArm -15.363557 -4.156813 -61.486147
LeftForeArm 2.673491 0.000000 -0.196507
LeftHand -4.823325 0.000000 -5.031393
LeftHandThumb1 -26.253704 0.000000 33.147579
RightShoulder -12.419837 -10.030355 12.437456
RightArm 13.981450 12.813556 65.611337
RightForeArm -25.912664 -0.000000 14.754282
RightHand -2.338472 -0.000000 8.569571
RightHandThumb1 -24.326973 -0.000000 -32.862282
LeftUpLeg 10.557354 12.660087 -0.380546
LeftLeg -3.625560 -0.000000 0.000000
LeftFoot -21.648934 29.950917 -12.022984
LeftToeBase 25.915617 -0.000000 -0.000000
RightUpLeg -10.308681 -9.859187 -8.449614
RightLeg 32.879315 -0.000000 -0.000000
RightFoot -19.812911 -1.574938 24.738484
RightToeBase 19.654665 -0.000000 -0.000000
113
root 19.729861 35.456758 -21.566862 -184.258194 7.523243 -181.119646
Spine 2.188787 2.013368 -4.481843
Head 13.508181 -4.643703 8.271224
LeftShoulder -10.612347 -24.255210 0.687418
LeftArm -15.511596 -3.763214 -62.601637
LeftForeArm 2.507996 -0.000000 -0.140719
LeftHand -4.844712 -0.000000 -5.150254
LeftHandThumb1 -26.253704 0.000000 33.147579
RightShoulder -12.420861 -10.106029 12.593133
RightArm 13.863751 11.914090 65.796462
RightForeArm -25.574391 -0.000000 15.194342
RightHand -2.329944 -0.000000 9.391549
RightHandThumb1 -24.326973 -0.000000 -32.862282
LeftUpLeg 10.705809 12.769928 -0.519256
LeftLeg -3.732956 -0.000000 0.000000
LeftFoot -21.582550 29.972344 -11.992879
LeftToeBase 25.949037 -0.000000 -0.000000
RightUpLeg -10.461743 -10.057412 -8.971930
RightLeg 33.133915 -0.000000 -0.000000
RightFoot -20.050324 -1.194567 24.131427
RightToeBase 19.162611 -0.000000 -0.000000
114
root 19.726863 35.448363 -21.564029 -184.420504 7.600123 -181.243679
Spine 2.466920 2.067502 -4.594485
Head 13.432700 -4.786032 8.279922
LeftShoulder -10.524326 -24.157564 0.597944
LeftArm -15.536315 -3.478513 -63.662451
LeftForeArm 2.645338 0.000000 -0.118488
LeftHand -4.791665 -0.000000 -5.429456
LeftHandThumb1 -26.253704 0.000000 33.147579
RightShoulder -12.444856 -10.281166 12.768994
RightArm 13.946758 11.368167 66.034439
RightForeArm -25.654641 -0.000000 15.460488
RightHand -2.048484 -0.000000 10.193918
RightHandThumb1 -24.326973 -0.000000 -32.862282
LeftUpLeg 10.896823 12.813164 -0.608564
LeftLeg -3.812793 -0.000000 0.000000
LeftFoot -21.566781 30.044139 -12.042378
LeftToeBase 25.974197 -0.000000 -0.000000
RightUpLeg -10.471331 -10.249737 -9.481835
RightLeg 33.121168 -0.000000 -0.000000
RightFoot -20.378960 -1.200573 23.886611
RightToeBase 18.531725 -0.000000 -0.000000
115
root 19.726131 35.440838 -21.566009 -184.579198 7.659308 -181.357922
Spine 2.733877 2.120867 -4.653211
Head 13.369437 -4.882190 8.211380
LeftShoulder -10.424502 -24.107372 0.451380
LeftArm -15.652667 -2.741077 -64.771270
LeftForeArm 2.580977 0.000000 0.110361
LeftHand -4.801691 -0.000000 -5.630377
LeftHandThumb1 -26.253704 0.000000 33.147579
RightShoulder -12.471605 -10.401929 12.883461
RightArm 13.960293 10.781317 66.253931
RightForeArm -25.783619 -0.000000 15.794327
RightHand -2.002285 -0.000000 10.840861
RightHandThumb1 -24.326973 -0.000000 -32.862282
LeftUpLeg 11.089343 12.831961 -0.686498
LeftLeg -3.885357 -0.000000 0.000000
LeftFoot -21.556050 30.116817 -12.083648
LeftToeBase 25.943636 -0.000000 -0.000000
RightUpLeg -10.403223 -10.481299 -9.995038
RightLeg 32.860979 -0.000000 -0.000000
RightFoot -20.984962 -1.790864 23.742186
RightToeBase 18.696039 -0.000000 -0.000000
116
root 19.733320 35.434817 -21.566171 -184.730828 7.654122 -181.434224
Spine 2.989114 2.125118 -4.673028
Head 13.346291 -4.991764 8.134395
LeftShoulder -10.301762 -24.030318 0.295924
LeftArm -15.716097 -2.004386 -65.857755
LeftForeArm 2.586962 -0.000000 0.330076
LeftHand -4.801486 -0.000000 -5.732998
LeftHandThumb1 -26.253704 0.000000 33.147579
RightShoulder -12.442907 -10.525128 12.979009
RightArm 13.946599 10.288965 66.441382
RightForeArm -25.788938 -0.000000 16.056975
RightHand -1.854050 -0.000000 11.388172
RightHandThumb1 -24.326973 -0.000000 -32.862282
LeftUpLeg 11.253074 12.812805 -0.718346
LeftLeg -3.920731 -0.000000 0.000000
LeftFoot -21.545912 30.159536 -12.093853
LeftToeBase 26.016380 -0.000000 -0.000000
RightUpLeg -10.234951 -10.752148 -10.482572
RightLeg 32.382890 -0.000000 -0.000000
RightFoot -21.565798 -2.906270 23.808990
RightToeBase 17.362388 -0.000000 -0.000000
117
root 19.736580 35.430454 -21.575535 -184.885555 7.635492 -181.534624
Spine 3.215373 2.160788 -4.697829
Head 13.350086 -5.118767 8.046449
LeftShoulder -10.230485 -23.893008 0.145529
LeftArm -15.642548 -1.307075 -66.928379
LeftForeArm 2.665278 -0.000000 0.412004
LeftHand -4.645869 -0.000000 -5.761136
LeftHandThumb1 -26.253704 0.000000 33.147579
RightShoulder -12.436503 -10.648933 13.081930
RightArm 13.919941 9.804725 66.535869
RightForeArm -25.841268 -0.000000 16.284162
RightHand -1.678911 -0.000000 11.854542
RightHandThumb1 -24.326973 -0.000000 -32.862282
LeftUpLeg 11.424483 12.815578 -0.778267
LeftLeg -3.948054 -0.000000 0.000000
LeftFoot -21.535209 30.193130 -12.156174
LeftToeBase 25.939741 -0.000000 -0.000000
RightUpLeg -9.971168 -11.089992 -11.029726
RightLeg 31.676012 -0.000000 -0.000000
RightFoot -22.268390 -4.494886 23.914417
RightToeBase 17.021124 -0.000000 -0.000000
